<?xml version="1.0" encoding="UTF-8" standalone="no"?>
<svg
   xmlns:dc="http://purl.org/dc/elements/1.1/"
   xmlns:cc="http://creativecommons.org/ns#"
   xmlns:rdf="http://www.w3.org/1999/02/22-rdf-syntax-ns#"
   xmlns:svg="http://www.w3.org/2000/svg"
   xmlns="http://www.w3.org/2000/svg"
   xmlns:sodipodi="http://sodipodi.sourceforge.net/DTD/sodipodi-0.dtd"
   xmlns:inkscape="http://www.inkscape.org/namespaces/inkscape"
   width="100"
   height="100"
   viewBox="0 0 80 80"
   version="1.1"
   id="svg2"
   inkscape:version="0.48.2 r9819"
   sodipodi:docname="gravatar.svg"
   inkscape:export-filename="/Users/bodo/Desktop/Gravatar.png"
   inkscape:export-xdpi="514.82001"
   inkscape:export-ydpi="514.82001">
  <metadata
     id="metadata82">
    <rdf:RDF>
      <cc:Work
         rdf:about="">
        <dc:format>image/svg+xml</dc:format>
        <dc:type
           rdf:resource="http://purl.org/dc/dcmitype/StillImage" />
        <dc:title />
      </cc:Work>
    </rdf:RDF>
  </metadata>
  <defs
     id="defs80">
    <inkscape:perspective
       sodipodi:type="inkscape:persp3d"
       inkscape:vp_x="0 : 50 : 1"
       inkscape:vp_y="0 : 1000 : 0"
       inkscape:vp_z="100 : 50 : 1"
       inkscape:persp3d-origin="50 : 33.333333 : 1"
       id="perspective3824" />
    <inkscape:path-effect
       effect="spiro"
       id="path-effect4140"
       is_visible="true" />
    <inkscape:path-effect
       effect="spiro"
       id="path-effect4136"
       is_visible="true" />
    <inkscape:path-effect
       effect="spiro"
       id="path-effect4132"
       is_visible="true" />
  </defs>
  <sodipodi:namedview
     pagecolor="#ffffff"
     bordercolor="#666666"
     borderopacity="1"
     objecttolerance="10"
     gridtolerance="10"
     guidetolerance="10"
     inkscape:pageopacity="0"
     inkscape:pageshadow="2"
     inkscape:window-width="1621"
     inkscape:window-height="1006"
     id="namedview78"
     showgrid="false"
     showguides="true"
     inkscape:guide-bbox="true"
     inkscape:zoom="5.2945609"
     inkscape:cx="-11.646385"
     inkscape:cy="51.564837"
     inkscape:window-x="59"
     inkscape:window-y="0"
     inkscape:window-maximized="1"
     inkscape:current-layer="layer6"
     fit-margin-top="0"
     fit-margin-left="0"
     fit-margin-right="0"
     fit-margin-bottom="0">
    <sodipodi:guide
       orientation="0,1"
       position="-9.5878886,102.91999"
       id="guide3060" />
  </sodipodi:namedview>
  <g
     inkscape:groupmode="layer"
     id="layer3"
     inkscape:label="Hintergrund"
     style="display:inline"
     sodipodi:insensitive="true">
    <rect
       style="fill:#ffdba7;fill-opacity:1;stroke:none"
       id="rect3818"
       width="80"
       height="80"
       x="0"
       y="-1.3045121e-14" />
  </g>
  <g
     inkscape:groupmode="layer"
     id="layer4"
     inkscape:label="Mund"
     style="display:inline"
     sodipodi:insensitive="true">
    <path
       style="fill:#000000;fill-opacity:1;stroke:#000000;stroke-width:1px;stroke-linecap:butt;stroke-linejoin:miter;stroke-opacity:1;display:inline"
       d="m 14.300847,79.34322 c -0.53707,-1.01217 3.710437,-0.528406 4.78733,-0.136958 2.413381,0.877259 3.767153,1.489723 6.299202,2.232104 4.212713,1.235141 7.672572,2.291061 12.006689,2.9896 5.375811,0.866431 10.868418,0.825413 16.313559,0.847458 3.293161,0.01333 6.703756,0.225718 9.851695,-0.741526 3.324318,-1.021439 7.064447,-3.284417 10.08394,-5.009841 2.171552,-1.240887 5.22785,-3.577828 7.585445,-4.412802 l 3.305192,-1.170577 4.255462,5.681784 c 1.069757,1.42831 2.86005,4.810103 3.185495,6.564678 0.508739,2.742766 1.412717,5.168051 -0.449432,7.245063 -1.848222,2.061479 -5.201877,0.751115 -7.96309,0.547836 -3.075055,-0.226384 -6.014419,-1.966665 -8.854427,-3.167319 -1.615743,-0.683078 -2.947984,-1.881109 -4.399951,-2.865493 -0.656795,-0.445285 -1.506523,-0.05309 -2.299481,-0.0235 -4.013638,0.149763 -7.95542,1.266905 -11.970339,1.377118 C 51.021427,89.43856 45.998677,89.061711 40.995763,88.665254 36.634039,88.319608 32.149441,86.883501 27.891197,85.877785 25.057364,85.208488 21.950633,84.230244 19.334186,82.952444 17.38601,82.001009 15.317065,81.258401 14.300847,79.34322 z"
       id="path3820"
       inkscape:connector-curvature="0"
       transform="scale(0.8,0.8)"
       sodipodi:nodetypes="sssssssscssssssssssss" />
  </g>
  <g
     inkscape:groupmode="layer"
     id="layer6"
     inkscape:label="Weiss in den Augen"
     style="display:inline">
    <path
       sodipodi:type="arc"
       style="fill:#ffffff;fill-opacity:1;stroke:none"
       id="path3830"
       sodipodi:cx="26.34375"
       sodipodi:cy="30.3125"
       sodipodi:rx="22.03125"
       sodipodi:ry="15"
       d="m 48.375,30.3125 a 22.03125,15 0 1 1 -44.0625,0 22.03125,15 0 1 1 44.0625,0 z"
       transform="matrix(0.66230288,0.53937562,-0.5778736,0.61818023,19.919252,-7.2727647)" />
    <path
       sodipodi:type="arc"
       style="fill:#ffffff;fill-opacity:1;stroke:none"
       id="path3834"
       sodipodi:cx="63.374447"
       sodipodi:cy="34.504234"
       sodipodi:rx="27.488775"
       sodipodi:ry="18.64994"
       d="m 90.863222,34.504234 a 27.488775,18.64994 0 1 1 -54.97755,0 27.488775,18.64994 0 1 1 54.97755,0 z"
       transform="matrix(0.6433432,-0.47550976,0.47550976,0.6433432,2.8103826,36.247597)" />
  </g>
  <g
     inkscape:groupmode="layer"
     id="layer2"
     inkscape:label="Zunge und Nase"
     style="display:inline"
     sodipodi:insensitive="true">
    <path
       style="fill:none;stroke:#000000;stroke-width:2.48559999;stroke-miterlimit:4;stroke-opacity:1;stroke-dasharray:none"
       d="m 1.1229417,1.202941 0,77.674117 77.6741173,0 0,-77.674117 -77.6741173,0 z"
       id="rect3232"
       inkscape:connector-curvature="0"
       inkscape:export-filename="/Users/bodo/Desktop/Gravatar.png"
       inkscape:export-xdpi="514"
       inkscape:export-ydpi="514" />
    <path
       style="fill:#000000;fill-opacity:1;stroke:#000000;stroke-width:1px;stroke-linecap:butt;stroke-linejoin:miter;stroke-opacity:1"
       d="m 42.246634,61.049202 c 2.135861,-2.564127 1.176935,6.349615 2.696593,9.138457 1.135148,2.083198 2.48765,4.404326 4.644135,5.393187 3.268233,1.498657 7.921683,2.172755 10.786374,0 3.098821,-2.350333 0.363729,-8.643074 3.146026,-11.235807 1.396755,-1.301591 2.316591,7.807873 0.599242,11.085997 -1.061188,2.025625 -3.636179,2.994704 -5.842618,3.595457 -2.409627,0.656076 -5.073424,0.478116 -7.490538,-0.149811 C 49.034499,78.42171 47.414425,77.448227 45.991904,76.3299 45.04645,75.586623 44.081681,74.733042 43.59493,73.633306 41.887471,69.775575 40.037637,63.70113 42.246634,61.049202 z"
       id="path3795"
       inkscape:connector-curvature="0"
       transform="scale(0.8,0.8)"
       sodipodi:nodetypes="saaasaaaaas" />
    <path
       style="fill:#c82727;fill-opacity:1;stroke:#c82727;stroke-width:1px;stroke-linecap:butt;stroke-linejoin:miter;stroke-opacity:1"
       d="m 72.583313,85.318545 c 1.747792,-1.647918 1.923269,-2.749264 5.243376,-4.943755 2.569606,-1.446939 2.971247,-1.048675 4.793945,-0.898864 1.398233,0.798991 1.897603,1.597982 2.846404,2.396972 0.798991,0.749054 1.86015,2.190983 2.247161,2.996215 0.728197,2.092738 0.473979,2.46971 0.468159,4.475597 -0.0435,0.547467 -0.0377,0.783902 -0.580516,1.68537 -1.697855,-0.09987 -3.732785,-0.443189 -5.43064,-0.543063 C 79.949009,90.187396 79.749261,90.11249 78.051406,89.513247 76.85292,88.914004 76.253677,88.839094 74.605758,87.490801 73.7818,86.741747 73.032745,85.917788 72.583313,85.318545 z"
       id="path3797"
       inkscape:connector-curvature="0"
       transform="scale(0.8,0.8)"
       sodipodi:nodetypes="ccccccccccc" />
  </g>
  <g
     inkscape:groupmode="layer"
     id="layer5"
     inkscape:label="Augen"
     style="display:inline">
    <path
       style="fill:#000000;fill-opacity:1;stroke:#000000;stroke-width:1px;stroke-linecap:butt;stroke-linejoin:miter;stroke-opacity:1"
       d="m 6.0104077,13.865555 c 2.4390066,-2.236447 3.1295354,-2.391266 4.8613593,-2.96101 3.086717,-1.015483 6.500615,-1.1279172 9.722718,-0.707106 3.492346,0.456105 6.869067,1.810839 9.987883,3.447145 3.30314,1.733012 6.409859,3.960022 9.015612,6.629126 2.335268,2.392043 4.198108,5.256719 5.745243,8.220116 0.987892,1.892219 1.778106,3.91992 2.209708,6.010409 0.542927,2.629695 0.869671,5.392468 0.441942,8.043339 -0.307649,1.906669 -0.870127,3.920448 -2.12132,5.391689 -1.531976,1.801406 -3.895642,2.76478 -6.098796,3.623922 -2.131892,0.831352 -4.429814,1.363854 -6.717515,1.414214 -2.895806,0.06375 -5.846125,-0.439403 -8.57367,-1.414214 C 20.92875,50.29271 17.763036,48.074105 14.672466,45.906331 12.46426,44.35746 10.387185,42.603992 8.4852814,40.691419 6.8627037,39.059739 5.3822279,37.27553 4.065864,35.388118 3.5599538,34.66274 2.9604098,33.946499 2.7400388,33.090021 1.9910493,30.179052 2.8873513,27.080046 2.9168155,24.074409 c 0.020505,-2.091757 -0.5697032,-4.262787 0,-6.275572 0.1837213,-0.649095 0.6072558,-1.22407 1.0606601,-1.723573 0.8198264,-0.903179 1.7711641,-2.628433 2.9168156,-2.209709 1.0070059,0.368051 1.642327,2.316694 0.8396892,3.005203 -1.4481319,1.24222 -1.9865229,2.870355 -2.4780145,4.515389 -0.5322859,1.781573 -0.6086683,3.70927 -0.4388009,5.560884 0.1560442,1.700936 0.5592347,3.423355 1.3258252,4.949747 1.289664,2.567907 3.3880726,4.659795 5.3474958,6.761709 1.84872,1.983161 3.855487,3.834777 6.010407,5.480077 1.968465,1.50294 4.015813,2.963984 6.275573,3.977476 2.152812,0.965526 4.469293,1.617289 6.805902,1.944543 2.246706,0.314662 4.649133,0.703595 6.805903,0 2.184959,-0.712791 4.186346,-2.229601 5.568466,-4.065864 0.980914,-1.303226 1.511077,-2.973768 1.679379,-4.596194 0.254944,-2.457649 -0.349251,-4.970026 -1.060661,-7.336232 -0.656488,-2.183531 -1.687588,-4.266824 -2.916815,-6.187185 -1.161258,-1.814177 -2.664784,-3.393714 -4.154253,-4.949747 -1.326601,-1.385888 -2.679471,-2.776857 -4.24264,-3.889087 -1.718582,-1.22281 -3.589866,-2.274502 -5.568466,-3.005204 -2.488214,-0.918903 -5.133107,-1.481373 -7.778174,-1.679379 -2.32571,-0.174099 -4.727464,-0.152396 -6.98268,0.441942 -1.662827,0.43822 -0.793574,-0.131742 -4.6403883,2.253903 -0.7593645,0.470928 -1.4308643,-2.018166 -1.281631,-3.181981 z"
       id="path3827"
       inkscape:connector-curvature="0"
       sodipodi:nodetypes="csaaaaaaaaaaaaaaaaacsaaaaaaaaaaaaaaaassc"
       transform="scale(0.8,0.8)" />
    <path
       style="fill:#000000;fill-opacity:1;stroke:#000000;stroke-width:1px;stroke-linecap:butt;stroke-linejoin:miter;stroke-opacity:1"
       d="M 97.555634,14.747254 C 96.762983,13.635174 96.177175,13.254613 95.3125,12.75 93.753394,11.840126 91.940576,11.430586 90.1875,11 88.324728,10.542471 86.417136,10.186985 84.5,10.125 c -2.132142,-0.06894 -4.28804,0.120483 -6.375,0.5625 -2.52011,0.533758 -4.990211,1.38518 -7.3125,2.5 -2.803144,1.345655 -5.420046,3.091702 -7.875,5 -1.966466,1.528584 -3.820552,3.230525 -5.4375,5.125 -1.489276,1.74489 -2.729154,3.700134 -3.875,5.6875 -0.888971,1.541838 -1.777117,3.115179 -2.3125,4.8125 -0.654194,2.073986 -0.950471,4.265532 -1.059754,6.4375 -0.09965,1.980547 -0.05305,4.000592 0.372254,5.9375 0.383348,1.74583 1.048945,3.449081 1.9375,5 0.83298,1.453916 1.898697,2.795613 3.125,3.9375 1.459002,1.358568 3.172698,2.44771 4.9375,3.375 1.640552,0.862005 3.381852,1.582752 5.1875,2 1.650302,0.381351 3.373851,0.569369 5.0625,0.4375 1.732904,-0.135325 3.410568,-0.70927 5.0625,-1.25 1.456045,-0.476609 2.865799,-1.093334 4.25,-1.75 1.861255,-0.88298 3.651704,-1.910439 5.4375,-2.9375 2.253769,-1.428078 4.54866,-3.907547 6.5,-5.4375 1.051143,-0.833153 1.98328,-1.768411 2.875,-2.75 1.177053,-1.295678 6.07305,-8.410846 3.1875,-4.75 -2.378439,3.017488 -0.271992,-5.779128 -0.6875,-4.625 -0.730213,2.028265 -2.664141,4.763155 -4.4375,6.8125 -2.414812,2.790628 -5.288565,5.197142 -8.3125,7.3125 -1.925095,1.346678 -4.053069,2.3933 -6.1875,3.375 -2.186498,1.005647 -4.365571,2.236005 -6.75,2.5625 -2.279843,0.312174 -4.657061,-0.0119 -6.875,-0.625 C 63.132285,56.375991 61.369531,55.5663 59.875,54.4375 58.296996,53.245655 56.996847,51.669843 55.9375,50 55.087557,48.660239 54.388576,47.177751 54.0625,45.625 53.591506,43.382159 53.698458,41.021837 54,38.75 c 0.28466,-2.14465 0.899264,-4.260828 1.75,-6.25 0.819105,-1.915214 1.929024,-3.715116 3.1875,-5.375 1.148424,-1.514729 2.502212,-2.878713 3.9375,-4.125 1.567156,-1.36079 3.310455,-2.512317 5.0625,-3.625 2.196697,-1.395071 4.399236,-2.83892 6.8125,-3.8125 1.597992,-0.644676 3.297085,-1.04932 5,-1.3125 2.061463,-0.318592 4.170486,-0.476058 6.25,-0.3125 1.920589,0.151058 3.825269,0.588343 5.65625,1.1875 1.291808,0.422722 2.59426,0.912817 3.713944,1.683381 2.610387,1.796462 1.863133,3.665454 3.128433,2.978361 1.501843,-0.815541 0.194687,-3.443337 -0.942993,-5.039488 z"
       id="path3832"
       inkscape:connector-curvature="0"
       transform="scale(0.8,0.8)"
       sodipodi:nodetypes="caaaaaaaaaaaaaaaaaaccsssaaaaaaaaaaaaaaaaassc" />
    <path
       style="fill:none;stroke:#ff9292;stroke-width:0.41440001;stroke-linecap:round;stroke-linejoin:miter;stroke-miterlimit:4;stroke-opacity:1;stroke-dasharray:none"
       d="m 61.468353,65.449739 5.845465,4.859067"
       id="path3891"
       inkscape:connector-curvature="0"
       sodipodi:nodetypes="cc" />
  </g>
  <g
     inkscape:groupmode="layer"
     id="layer7"
     inkscape:label="pupillen"
     sodipodi:insensitive="true"
     style="display:inline">
    <path
       sodipodi:type="arc"
       style="fill:#ae7f45;fill-opacity:0.94117647;stroke:none"
       id="path3837"
       sodipodi:cx="34.847084"
       sodipodi:cy="40.363327"
       sodipodi:rx="7.7437959"
       sodipodi:ry="7.5077047"
       d="m 42.59088,40.363327 a 7.7437959,7.5077047 0 1 1 -15.487592,0 7.7437959,7.5077047 0 1 1 15.487592,0 z"
       transform="matrix(0.8,0,0,0.8,-0.96158471,0.74789922)" />
    <path
       transform="matrix(0.72195122,0,0,0.70943396,26.900894,8.7238258)"
       sodipodi:type="arc"
       style="fill:#ae7f45;fill-opacity:0.94117647;stroke:none"
       id="path3837-3"
       sodipodi:cx="34.847084"
       sodipodi:cy="40.363327"
       sodipodi:rx="7.7437959"
       sodipodi:ry="7.5077047"
       d="m 42.59088,40.363327 a 7.7437959,7.5077047 0 1 1 -15.487592,0 7.7437959,7.5077047 0 1 1 15.487592,0 z" />
    <path
       sodipodi:type="arc"
       style="fill:#4a2a00;fill-opacity:0.94117647;stroke:none"
       id="path3859"
       sodipodi:cx="34.323231"
       sodipodi:cy="42.104588"
       sodipodi:rx="2.2704084"
       sodipodi:ry="1.9365247"
       d="m 36.593639,42.104588 a 2.2704084,1.9365247 0 1 1 -4.540817,0 2.2704084,1.9365247 0 1 1 4.540817,0 z"
       transform="matrix(1.1993074,0,0,1.3851918,-12.836702,-24.601485)" />
    <path
       sodipodi:type="arc"
       style="fill:#4a2a00;fill-opacity:0.94117647;stroke:none"
       id="path3859-1"
       sodipodi:cx="34.323231"
       sodipodi:cy="42.104588"
       sodipodi:rx="2.2704084"
       sodipodi:ry="1.9365247"
       d="m 36.593639,42.104588 a 2.2704084,1.9365247 0 1 1 -4.540817,0 2.2704084,1.9365247 0 1 1 4.540817,0 z"
       transform="matrix(1.1993074,0,0,1.3851918,9.6805272,-20.706047)" />
  </g>
</svg>
